<svg width="29" height="22" viewBox="0 0 29 22" fill="none" xmlns="http://www.w3.org/2000/svg">
<path d="M20.3 19.0667V22H0V19.0667C0 19.0667 0 13.2 10.15 13.2C20.3 13.2 20.3 19.0667 20.3 19.0667ZM15.225 5.13337C15.225 4.1181 14.9274 3.12562 14.3697 2.28145C13.8121 1.43728 13.0195 0.779334 12.0921 0.390805C11.1648 0.00227611 10.1444 -0.0993808 9.15992 0.0986895C8.17546 0.29676 7.27118 0.785661 6.56143 1.50357C5.85168 2.22148 5.36834 3.13615 5.17251 4.13191C4.9767 5.12768 5.0772 6.15982 5.46131 7.09781C5.84543 8.0358 6.4959 8.83752 7.33048 9.40158C8.16506 9.96563 9.14626 10.2667 10.15 10.2667C11.496 10.2667 12.7868 9.72586 13.7386 8.76318C14.6903 7.8005 15.225 6.49482 15.225 5.13337ZM20.213 13.2C21.1044 13.8978 21.8338 14.7847 22.3498 15.7982C22.8659 16.8118 23.1561 17.9275 23.2 19.0667V22H29V19.0667C29 19.0667 29 13.7427 20.213 13.2ZM18.85 5.39681e-05C17.8521 -0.00464102 16.8762 0.297099 16.0515 0.865385C16.9323 2.1102 17.4059 3.6026 17.4059 5.13337C17.4059 6.66415 16.9323 8.15655 16.0515 9.40136C16.8762 9.96965 17.8521 10.2714 18.85 10.2667C20.196 10.2667 21.4868 9.72586 22.4386 8.76318C23.3903 7.8005 23.925 6.49482 23.925 5.13337C23.925 3.77193 23.3903 2.46625 22.4386 1.50357C21.4868 0.540885 20.196 5.39681e-05 18.85 5.39681e-05Z" fill="white"/>
</svg>
