<svg width="30" height="26" viewBox="0 0 30 26" fill="none" xmlns="http://www.w3.org/2000/svg">
<path d="M27.6923 0H2.30769C1.69565 0 1.10868 0.249025 0.675907 0.692293C0.243131 1.13556 0 1.73676 0 2.36364V23.6364C0 24.2632 0.243131 24.8644 0.675907 25.3077C1.10868 25.751 1.69565 26 2.30769 26H27.6923C28.3043 26 28.8913 25.751 29.3241 25.3077C29.7569 24.8644 30 24.2632 30 23.6364V2.36364C30 1.73676 29.7569 1.13556 29.3241 0.692293C28.8913 0.249025 28.3043 0 27.6923 0ZM27.6923 2.36364V17.5426L23.9322 13.6928C23.7179 13.4733 23.4635 13.2991 23.1835 13.1803C22.9035 13.0615 22.6033 13.0004 22.3002 13.0004C21.9971 13.0004 21.697 13.0615 21.417 13.1803C21.137 13.2991 20.8826 13.4733 20.6683 13.6928L17.7837 16.6474L11.4375 10.1474C11.0048 9.70445 10.418 9.45564 9.80625 9.45564C9.19447 9.45564 8.60773 9.70445 8.175 10.1474L2.30769 16.1569V2.36364H27.6923ZM2.30769 19.5L9.80769 11.8182L21.3462 23.6364H2.30769V19.5ZM27.6923 23.6364H24.6101L19.4178 18.3182L22.3024 15.3636L27.6923 20.8857V23.6364ZM17.3077 8.86364C17.3077 8.51302 17.4092 8.17029 17.5994 7.87876C17.7896 7.58724 18.0599 7.36002 18.3761 7.22585C18.6924 7.09168 19.0404 7.05657 19.3761 7.12497C19.7119 7.19337 20.0202 7.36221 20.2623 7.61013C20.5044 7.85805 20.6692 8.17392 20.736 8.51779C20.8028 8.86167 20.7685 9.21811 20.6375 9.54203C20.5065 9.86595 20.2846 10.1428 20 10.3376C19.7154 10.5324 19.3808 10.6364 19.0385 10.6364C18.5794 10.6364 18.1392 10.4496 17.8146 10.1171C17.49 9.78469 17.3077 9.33379 17.3077 8.86364Z" fill="white"/>
</svg>
