<svg width="31" height="24" viewBox="0 0 31 24" fill="none" xmlns="http://www.w3.org/2000/svg">
<path d="M29.0273 0H1.97273C1.44953 0 0.947757 0.226923 0.577799 0.630847C0.20784 1.03477 0 1.58261 0 2.15385V21.8462C0 22.4174 0.20784 22.9652 0.577799 23.3692C0.947757 23.7731 1.44953 24 1.97273 24H29.0273C29.5505 24 30.0522 23.7731 30.4222 23.3692C30.7922 22.9652 31 22.4174 31 21.8462V2.15385C31 1.58261 30.7922 1.03477 30.4222 0.630847C30.0522 0.226923 29.5505 0 29.0273 0ZM29.3091 21.8462C29.3091 21.9278 29.2794 22.006 29.2265 22.0637C29.1737 22.1214 29.102 22.1538 29.0273 22.1538H1.97273C1.89798 22.1538 1.8263 22.1214 1.77345 22.0637C1.7206 22.006 1.69091 21.9278 1.69091 21.8462V2.15385C1.69091 2.07224 1.7206 1.99398 1.77345 1.93627C1.8263 1.87857 1.89798 1.84615 1.97273 1.84615H29.0273C29.102 1.84615 29.1737 1.87857 29.2265 1.93627C29.2794 1.99398 29.3091 2.07224 29.3091 2.15385V21.8462ZM26.4909 12C26.4909 12.2448 26.4018 12.4796 26.2433 12.6527C26.0847 12.8258 25.8697 12.9231 25.6455 12.9231H5.35455C5.13032 12.9231 4.91527 12.8258 4.75672 12.6527C4.59817 12.4796 4.50909 12.2448 4.50909 12C4.50909 11.7552 4.59817 11.5204 4.75672 11.3473C4.91527 11.1742 5.13032 11.0769 5.35455 11.0769H25.6455C25.8697 11.0769 26.0847 11.1742 26.2433 11.3473C26.4018 11.5204 26.4909 11.7552 26.4909 12ZM26.4909 7.07692C26.4909 7.32174 26.4018 7.55653 26.2433 7.72964C26.0847 7.90275 25.8697 8 25.6455 8H5.35455C5.13032 8 4.91527 7.90275 4.75672 7.72964C4.59817 7.55653 4.50909 7.32174 4.50909 7.07692C4.50909 6.83211 4.59817 6.59732 4.75672 6.42421C4.91527 6.2511 5.13032 6.15385 5.35455 6.15385H25.6455C25.8697 6.15385 26.0847 6.2511 26.2433 6.42421C26.4018 6.59732 26.4909 6.83211 26.4909 7.07692ZM7.32727 16.9231C7.32727 17.1679 7.2382 17.4027 7.07964 17.5758C6.92109 17.7489 6.70605 17.8462 6.48182 17.8462H5.35455C5.13032 17.8462 4.91527 17.7489 4.75672 17.5758C4.59817 17.4027 4.50909 17.1679 4.50909 16.9231C4.50909 16.6783 4.59817 16.4435 4.75672 16.2704C4.91527 16.0973 5.13032 16 5.35455 16H6.48182C6.70605 16 6.92109 16.0973 7.07964 16.2704C7.2382 16.4435 7.32727 16.6783 7.32727 16.9231ZM20.8545 16.9231C20.8545 17.1679 20.7655 17.4027 20.6069 17.5758C20.4484 17.7489 20.2333 17.8462 20.0091 17.8462H10.9909C10.7667 17.8462 10.5516 17.7489 10.3931 17.5758C10.2345 17.4027 10.1455 17.1679 10.1455 16.9231C10.1455 16.6783 10.2345 16.4435 10.3931 16.2704C10.5516 16.0973 10.7667 16 10.9909 16H20.0091C20.2333 16 20.4484 16.0973 20.6069 16.2704C20.7655 16.4435 20.8545 16.6783 20.8545 16.9231ZM26.4909 16.9231C26.4909 17.1679 26.4018 17.4027 26.2433 17.5758C26.0847 17.7489 25.8697 17.8462 25.6455 17.8462H24.5182C24.294 17.8462 24.0789 17.7489 23.9204 17.5758C23.7618 17.4027 23.6727 17.1679 23.6727 16.9231C23.6727 16.6783 23.7618 16.4435 23.9204 16.2704C24.0789 16.0973 24.294 16 24.5182 16H25.6455C25.8697 16 26.0847 16.0973 26.2433 16.2704C26.4018 16.4435 26.4909 16.6783 26.4909 16.9231Z" fill="white"/>
</svg>
