<svg width="40" height="38" viewBox="0 0 40 38" fill="none" xmlns="http://www.w3.org/2000/svg">
<path d="M20.0731 14.1487V36M20.0731 14.1487L26.7957 21.4324M20.0731 14.1487L13.3504 21.4324M32.3978 26.2883C35.8017 26.2883 38 23.2995 38 19.6115C37.9999 18.1514 37.558 16.7316 36.7421 15.5695C35.9262 14.4075 34.7811 13.5672 33.4824 13.1775C33.2826 10.4545 32.241 7.88406 30.526 5.88181C28.811 3.87956 26.5229 2.56252 24.0316 2.14362C21.5402 1.72471 18.9913 2.22843 16.7969 3.57333C14.6025 4.91824 12.8908 7.02571 11.9387 9.55504C9.93408 8.95297 7.79081 9.23836 5.9804 10.3484C4.16999 11.4585 2.84073 13.3024 2.28504 15.4743C1.72936 17.6463 1.99277 19.9685 3.01732 21.93C4.04188 23.8915 5.74365 25.3318 7.74828 25.9338" stroke="white" stroke-width="4" stroke-linecap="round" stroke-linejoin="round"/>
</svg>
